<svg xmlns="http://www.w3.org/2000/svg" xmlns:xlink="http://www.w3.org/1999/xlink" xml:space="preserve" viewBox="0 0 179.61 145.134">
  <defs>
    <linearGradient id="a">
      <stop offset="0" style="stop-color:#5c084a;stop-opacity:1"/>
      <stop offset="1" style="stop-color:#96043c;stop-opacity:1"/>
    </linearGradient>
    <linearGradient id="r">
      <stop offset="0" style="stop-color:#9e023b;stop-opacity:1"/>
      <stop offset="1" style="stop-color:#fa3b15;stop-opacity:1"/>
    </linearGradient>
    <linearGradient id="q">
      <stop offset="0" style="stop-color:#ff910b;stop-opacity:1"/>
      <stop offset="1" style="stop-color:#fe7c0e;stop-opacity:1"/>
    </linearGradient>
    <linearGradient id="p">
      <stop offset="0" style="stop-color:#fd4514;stop-opacity:1"/>
      <stop offset=".22" style="stop-color:#f83515;stop-opacity:1"/>
      <stop offset=".595" style="stop-color:#fd4b12;stop-opacity:1"/>
      <stop offset=".737" style="stop-color:#fe640f;stop-opacity:1"/>
      <stop offset="1" style="stop-color:#fe770d;stop-opacity:1"/>
    </linearGradient>
    <linearGradient id="o">
      <stop offset="0" style="stop-color:#c80c29;stop-opacity:1"/>
      <stop offset="1" style="stop-color:#f01c16;stop-opacity:1"/>
    </linearGradient>
    <linearGradient id="m">
      <stop offset="0" style="stop-color:#9e053b;stop-opacity:1"/>
      <stop offset=".274" style="stop-color:#fb4114;stop-opacity:1"/>
      <stop offset=".732" style="stop-color:#ef2017;stop-opacity:1"/>
      <stop offset="1" style="stop-color:#f93a15;stop-opacity:1"/>
    </linearGradient>
    <linearGradient id="l">
      <stop offset="0" style="stop-color:#b60734;stop-opacity:1"/>
      <stop offset=".227" style="stop-color:#f73414;stop-opacity:1"/>
      <stop offset=".709" style="stop-color:#f95213;stop-opacity:1"/>
      <stop offset="1" style="stop-color:#ff6a0f;stop-opacity:1"/>
    </linearGradient>
    <linearGradient id="k">
      <stop offset="0" style="stop-color:#fd5611;stop-opacity:1"/>
      <stop offset=".356" style="stop-color:#fed83e;stop-opacity:1"/>
      <stop offset="1" style="stop-color:#fea220;stop-opacity:1"/>
    </linearGradient>
    <linearGradient id="j">
      <stop offset="0" style="stop-color:#a3053b;stop-opacity:1"/>
      <stop offset=".29" style="stop-color:#e71b19;stop-opacity:1"/>
      <stop offset=".664" style="stop-color:#fd780f;stop-opacity:1"/>
      <stop offset="1" style="stop-color:#f76c13;stop-opacity:1"/>
    </linearGradient>
    <linearGradient id="i">
      <stop offset="0" style="stop-color:#a80536;stop-opacity:1"/>
      <stop offset=".49" style="stop-color:#f53814;stop-opacity:1"/>
      <stop offset="1" style="stop-color:#fa820d;stop-opacity:1"/>
    </linearGradient>
    <linearGradient id="h">
      <stop offset="0" style="stop-color:#9d043c;stop-opacity:1"/>
      <stop offset=".47" style="stop-color:#e61d1a;stop-opacity:1"/>
      <stop offset="1" style="stop-color:#fd6611;stop-opacity:1"/>
    </linearGradient>
    <linearGradient id="g">
      <stop offset="0" style="stop-color:#fd8111;stop-opacity:1"/>
      <stop offset=".508" style="stop-color:#ff940e;stop-opacity:1"/>
      <stop offset="1" style="stop-color:#fd5611;stop-opacity:1"/>
    </linearGradient>
    <linearGradient id="f">
      <stop offset="0" style="stop-color:#fe5f11;stop-opacity:1"/>
      <stop offset="1" style="stop-color:#fe740f;stop-opacity:1"/>
    </linearGradient>
    <linearGradient id="e">
      <stop offset="0" style="stop-color:#f93215;stop-opacity:1"/>
      <stop offset=".475" style="stop-color:#fd5f10;stop-opacity:1"/>
      <stop offset="1" style="stop-color:#fc4b10;stop-opacity:1"/>
    </linearGradient>
    <linearGradient id="d">
      <stop offset="0" style="stop-color:#ba052e;stop-opacity:1"/>
      <stop offset="1" style="stop-color:#f83413;stop-opacity:1"/>
    </linearGradient>
    <linearGradient id="c">
      <stop offset="0" style="stop-color:#b50533;stop-opacity:1"/>
      <stop offset="1" style="stop-color:#c90522;stop-opacity:1"/>
    </linearGradient>
    <linearGradient id="b">
      <stop offset="0" style="stop-color:#96043c;stop-opacity:1"/>
      <stop offset="1" style="stop-color:#b7082d;stop-opacity:1"/>
    </linearGradient>
    <linearGradient id="n">
      <stop offset="0" style="stop-color:#eb1717;stop-opacity:1"/>
      <stop offset="1" style="stop-color:#f32113;stop-opacity:1"/>
    </linearGradient>
    <linearGradient xlink:href="#a" id="s" x1="14.478" x2="74.228" y1="107.521" y2="107.521" gradientTransform="translate(-3.812 3.597)scale(.78151)" gradientUnits="userSpaceOnUse"/>
    <linearGradient xlink:href="#a" id="t" x1="14.478" x2="74.228" y1="107.521" y2="107.521" gradientTransform="translate(142.967 3.598)scale(.78151)" gradientUnits="userSpaceOnUse"/>
    <linearGradient xlink:href="#b" id="u" x1="80.235" x2="191.356" y1="177.426" y2="177.426" gradientUnits="userSpaceOnUse"/>
    <linearGradient xlink:href="#c" id="v" x1="121.469" x2="193.275" y1="157.811" y2="157.811" gradientUnits="userSpaceOnUse"/>
    <linearGradient xlink:href="#d" id="w" x1="113.562" x2="192.276" y1="144.357" y2="144.357" gradientUnits="userSpaceOnUse"/>
    <linearGradient xlink:href="#e" id="x" x1="96.254" x2="185.766" y1="146.877" y2="146.877" gradientUnits="userSpaceOnUse"/>
    <linearGradient xlink:href="#f" id="y" x1="114" x2="176.278" y1="153.832" y2="153.832" gradientUnits="userSpaceOnUse"/>
    <linearGradient xlink:href="#g" id="z" x1="131.302" x2="183.366" y1="129.546" y2="129.546" gradientUnits="userSpaceOnUse"/>
    <linearGradient xlink:href="#h" id="A" x1="80.235" x2="153.924" y1="168.292" y2="168.292" gradientUnits="userSpaceOnUse"/>
    <linearGradient xlink:href="#i" id="B" x1="80.235" x2="154.951" y1="159.091" y2="159.091" gradientUnits="userSpaceOnUse"/>
    <linearGradient xlink:href="#j" id="C" x1="80.235" x2="145.139" y1="133.617" y2="133.617" gradientUnits="userSpaceOnUse"/>
    <linearGradient xlink:href="#k" id="D" x1="79.889" x2="144.999" y1="78.696" y2="78.696" gradientUnits="userSpaceOnUse"/>
    <linearGradient xlink:href="#l" id="E" x1="78.901" x2="116.05" y1="131.558" y2="131.558" gradientUnits="userSpaceOnUse"/>
    <linearGradient xlink:href="#m" id="F" x1="65.553" x2="105.54" y1="120.692" y2="120.692" gradientUnits="userSpaceOnUse"/>
    <linearGradient xlink:href="#n" id="G" x1="65.597" x2="105.671" y1="65.698" y2="65.698" gradientUnits="userSpaceOnUse"/>
    <linearGradient xlink:href="#o" id="H" x1="101.554" x2="118.319" y1="34.664" y2="34.664" gradientUnits="userSpaceOnUse"/>
    <linearGradient xlink:href="#p" id="I" x1="71.296" x2="145.269" y1="68.226" y2="68.226" gradientUnits="userSpaceOnUse"/>
    <linearGradient xlink:href="#q" id="J" x1="101.182" x2="129.37" y1="48.512" y2="48.512" gradientUnits="userSpaceOnUse"/>
    <linearGradient xlink:href="#r" id="K" x1="85.993" x2="105.851" y1="40.25" y2="40.25" gradientUnits="userSpaceOnUse"/>
  </defs>
  <g style="vector-effect:non-scaling-stroke;stroke:#fff;stroke-width:.264583;stroke-dasharray:none;stroke-opacity:1;-inkscape-stroke:hairline">
    <text xml:space="preserve" x="1.773" y="135.83" style="font-style:normal;font-variant:normal;font-weight:400;font-stretch:normal;font-size:129.232px;font-family:Poppins;-inkscape-font-specification:Poppins;text-align:start;writing-mode:lr-tb;direction:ltr;text-anchor:start;opacity:1;vector-effect:non-scaling-stroke;fill:url(#s);stroke:#fff;stroke-width:.264583;stroke-dasharray:none;stroke-opacity:1;-inkscape-stroke:hairline" transform="translate(-15.21 -14.995)"><tspan x="1.773" y="135.83" style="font-style:normal;font-variant:normal;font-weight:400;font-stretch:normal;font-family:Poppins;-inkscape-font-specification:Poppins;vector-effect:non-scaling-stroke;fill:url(#s);stroke:#fff;stroke-width:.264583;stroke-dasharray:none;stroke-opacity:1;-inkscape-stroke:hairline">{</tspan></text>
    <text xml:space="preserve" x="148.552" y="135.83" style="font-style:normal;font-variant:normal;font-weight:400;font-stretch:normal;font-size:129.232px;font-family:Poppins;-inkscape-font-specification:Poppins;text-align:start;writing-mode:lr-tb;direction:ltr;text-anchor:start;vector-effect:non-scaling-stroke;fill:url(#t);stroke:#fff;stroke-width:.264583;stroke-dasharray:none;stroke-opacity:1;-inkscape-stroke:hairline" transform="translate(-15.21 -14.995)"><tspan x="148.552" y="135.83" style="font-style:normal;font-variant:normal;font-weight:400;font-stretch:normal;font-family:Poppins;-inkscape-font-specification:Poppins;vector-effect:non-scaling-stroke;fill:url(#t);stroke:#fff;stroke-width:.264583;stroke-dasharray:none;stroke-opacity:1;-inkscape-stroke:hairline">}</tspan></text>
    <g style="display:inline;vector-effect:non-scaling-stroke;stroke:#fff;stroke-width:.338553;stroke-dasharray:none;stroke-opacity:1;-inkscape-stroke:hairline">
      <path d="M191.08 163.422c-6.2 9.843-16.988 13.606-27.198 17.377-9.013 3.21-16.54 1.724-27.522 2.171-3.48.142-8.156 1.26-12.498 1.644-.258.02-.486.042-.682.05-.57.04-1.16.119-1.71.123a49 49 0 0 1 3.083-1.336q-.462.145-.917.295c7.008-2.817 11.427-4.562 25.89-10.467-4.345.483-7.644.353-13.008 1.572-2.369.538-5.03 1.268-8.547 2.55-3.826 1.396-8.504 3.341-14.409 6.074 3.792-6.677 7.535-10.97 11.577-13.842-.045.02-.094.035-.139.055-1.485.667-2.848 1.442-4.26 2.189-7.307 3.864-13.323 9.567-24.486 14.154q-1.102.473-2.2.906l-.03.013-.027.011-.009.004q-.6.263-1.207.503c.173-.074.333-.152.5-.227-4.565 1.755-9.046 3.055-13.046 4.343v.156c7.24.036 54.213.251 73.003-.242 3.727-.098 12.906-2.422 13.763-2.745 17.782-6.684 24.355-25.718 24.355-25.718s-.09.136-.276.387z" style="display:inline;vector-effect:non-scaling-stroke;fill:url(#u);stroke:#fff;stroke-width:.338553;stroke-dasharray:none;stroke-opacity:1;-inkscape-stroke:hairline" transform="translate(-11.333 -11.69)scale(.78151)"/>
      <path d="M192.263 131.562c-.391 13.834-9.29 22.453-15.14 28.303-.875.896-1.799 1.587-2.694 2.402-1.052.962-2.093 1.978-3.166 2.847l-.023.02-.237.187c-15.632 11.115-32.702 13.798-46.45 18.13q-1.586.624-3.084 1.336c.77-.006 1.588-.102 2.393-.173 4.342-.385 9.019-1.502 12.498-1.644 10.983-.447 18.509 1.04 27.522-2.17 10.322-3.813 21.234-7.616 27.4-17.703 1.224-2.667 2.175-5.349 1.963-8.096-1.92 3.122-6.537 6.614-8.428 7.16 7.13-10.391 7.573-20.857 7.672-31.327z" style="display:inline;vector-effect:non-scaling-stroke;fill:url(#v);stroke:#fff;stroke-width:.338553;stroke-dasharray:none;stroke-opacity:1;-inkscape-stroke:hairline" transform="translate(-11.333 -11.69)scale(.78151)"/>
      <path d="M183.48 107.96c.95 2.319 2.372 3.443 2.282 10.465-1.453 17.692-7.502 30.09-18.732 37.778-9.769 6.69-23.821 9.598-37.606 12.075-1.618.29-2.995.784-4.285 1.355-4.042 2.871-7.785 7.165-11.577 13.842 5.905-2.733 10.583-4.678 14.409-6.073 3.516-1.283 6.179-2.013 8.547-2.551 5.363-1.218 8.664-1.089 13.007-1.572-14.462 5.905-18.88 7.65-25.89 10.467 12.3-4.031 27.695-5.856 41.921-14.697 3.974-2.47 7.872-5.4 11.568-9.184 8.933-8.936 24.982-24.328 6.963-54.898z" style="display:inline;vector-effect:non-scaling-stroke;fill:url(#w);stroke:#fff;stroke-width:.338553;stroke-dasharray:none;stroke-opacity:1;-inkscape-stroke:hairline" transform="translate(-11.333 -11.69)scale(.78151)"/>
      <path d="M183.306 107.907c.48 10.011-1.978 18.32-5.747 23.675-.307.435-.636.838-.98 1.229-.096.11-.2.22-.301.327-.126.134-.242.275-.374.404-1.526 2.487-3.712 4.648-6.11 6.646a42 42 0 0 1-4.104 3.16c-.198.126-.388.208-.586.332-.39.265-.747.59-1.139.848-5.084 3.342-28.694 14.38-42.523 24.046-4.69 3.743-8.766 6.953-13.202 10.526-1.736 1.353-3.543 2.507-5.372 3.574-.31.181-.614.372-.926.545-.851.475-1.712.847-2.573 1.272-1.04.513-2.07 1.09-3.115 1.54 11.163-4.587 17.18-10.29 24.485-14.154 1.413-.747 2.777-1.522 4.261-2.19.067-.03.125-.068.192-.098l-.053.044c1.29-.571 2.667-1.064 4.285-1.355 13.785-2.477 27.837-5.386 37.606-12.075 11.23-7.689 17.279-20.086 18.732-37.778.09-7.022-1.331-8.146-2.282-10.465l-.005.027-.104-.263-.033.948q-.013-.382-.032-.765z" style="display:inline;vector-effect:non-scaling-stroke;fill:url(#x);stroke:#fff;stroke-width:.338553;stroke-dasharray:none;stroke-opacity:1;-inkscape-stroke:hairline" transform="translate(-11.333 -11.69)scale(.78151)"/>
      <path d="M147.09 145.81c2.306-.55 4.594-.872 6.834-.802l-14.606 8.947c-5.142 4.054-18.393 15.043-25.318 20.572 30.296-22.418 46.857-25.874 56.065-34.344 2.313-2.128 4.314-4.156 5.839-6.64.132-.13.248-.271.374-.405-2.725 2.908-6.818 4.752-15.326 7.816a862 862 0 0 1-13.863 4.856z" style="display:inline;vector-effect:non-scaling-stroke;fill:url(#y);stroke:#fff;stroke-width:.338553;stroke-dasharray:none;stroke-opacity:1;-inkscape-stroke:hairline" transform="translate(-11.333 -11.69)scale(.78151)"/>
      <path d="M152.095 134.176c-.093.157-.238.332-.338.492a27 27 0 0 1-1.526 2.22c-.057.075-.09.142-.148.217-.262.335-.618.682-.909 1.02-.443.518-.868 1.03-1.381 1.553-.09.091-.15.18-.24.27a35 35 0 0 1-3.274 2.865c-.38.293-1.181.731-1.853 1.165-.094.062-.184.135-.279.197-.344.225-.7.426-1.05.64l-.071.043c-2.048 1.264-4.312 2.69-4.949 3.112-2.92 1.938-3.799 2.532-4.775 3.216 3.685-1.196 7.498-2.798 11.31-4.073 1.495-.5 2.99-.949 4.477-1.303a862 862 0 0 0 13.863-4.856c8.508-3.064 12.601-4.908 15.326-7.816q.153-.161.302-.327c.343-.39.672-.794.979-1.23 3.77-5.354 6.227-13.663 5.747-23.674-1.355 4.535-3.84 8.575-7.256 12.15a40 40 0 0 1-3.721 3.42c-5.356 4.356-12.255 7.9-20.234 10.699zm30.278-14.701q0 .005-.002.008l-.005.027c-.06.301-.101.62-.167.915l-.006.026c.075-.307.113-.65.178-.968z" style="display:inline;vector-effect:non-scaling-stroke;fill:url(#z);stroke:#fff;stroke-width:.338553;stroke-dasharray:none;stroke-opacity:1;-inkscape-stroke:hairline" transform="translate(-11.333 -11.69)scale(.78151)"/>
      <path d="M80.235 191.47v.114c10.252-2.923 20.334-6.454 28.894-12.858 10.988-8.85 23.841-18.804 32.464-25.604l12.331-8.114c-1.373-.043-2.768.097-4.17.311-.886.136-1.773.278-2.666.491a53 53 0 0 0-4.476 1.304c-3.812 1.274-7.625 2.876-11.31 4.072-.427.298-1.103.58-1.744 1.033-6.679 4.713-8.74 6.849-20.558 18.832-5.62 5.698-16.991 12.55-21.376 15.596a162 162 0 0 1-7.39 4.823z" style="display:inline;vector-effect:non-scaling-stroke;fill:url(#A);stroke:#fff;stroke-width:.338553;stroke-dasharray:none;stroke-opacity:1;-inkscape-stroke:hairline" transform="translate(-11.333 -11.69)scale(.78151)"/>
      <path d="M110.307 160.318c-10.464 18.84-24.596 25.244-30.072 28.458v2.693a162 162 0 0 0 7.389-4.822c4.385-3.046 15.755-9.898 21.376-15.596 11.818-11.983 14.11-14.086 20.79-18.799 2.11-1.489 2.093-1.498 6.287-4.282 1.055-.7 6.519-3.858 8.202-5.157q.374-.288.729-.577a33 33 0 0 0 2.785-2.558c.512-.522.94-1.036 1.381-1.552.354-.413.745-.831 1.057-1.237a27 27 0 0 0 1.526-2.221c.11-.177.26-.368.363-.542.417-.702.7-1.325 1.004-1.96.106-.222.255-.472.349-.684.135-.306.245-.586.357-.87.2-.509.386-1 .52-1.424.074-.238.152-.48.209-.687.104-.384.192-.732.246-.995.01-.05.026-.114.035-.16.01-.051.03-.136.038-.182.04-.232.072-.448.073-.451-.005.004-3.286 2.667-6.795 4.122-5.916 2.454-14.952 5.2-21.153 9.91-6.678 5.07-10.484 9.124-16.397 19.077q-.16.27-.322.537l.005-.008z" style="display:inline;vector-effect:non-scaling-stroke;fill:url(#B);stroke:#fff;stroke-width:.338553;stroke-dasharray:none;stroke-opacity:1;-inkscape-stroke:hairline" transform="translate(-11.333 -11.69)scale(.78151)"/>
      <path d="M138.767 83.056c2.607-.82 4.575-2.143 6.372-4.034l-.063.04h-.156c-4.202 1.24-9.043 3.245-15.517 2.023-4.897-.923-9.312-1.741-13.358-2.338l.005.003c-7.453-.603-13.86-.99-21.583 6.496-9.726 9.427-4.53 21.054.496 30.524l.003.007.176.327.007.013.028.052c1.989 3.7 4.814 8.145 6.286 11.74 3.615 8.824 5.983 17.202 4.913 24.949q.026-.189.05-.379-.053.969-.168 1.93.082-.766.118-1.551a25 25 0 0 1-.253 2.522c-.037.256-.087.507-.132.76-.081.46-.183.912-.288 1.363a27 27 0 0 1-1.048 3.495c-.038.099-.088.194-.127.293-.362.914-.8 1.798-1.252 2.677a36 36 0 0 1-2.083 3.527c-.155.231-.282.474-.442.703a50 50 0 0 1-3.134 3.99c-.182.211-.381.415-.567.624-2.194 2.47-4.651 4.823-7.186 7.135-.42.382-.797.78-1.22 1.16-.041.037-.078.076-.119.113-2.755 2.468-5.584 4.889-8.29 7.334v.222c5.476-3.214 19.608-9.618 30.072-28.459 2.773-4.993 1.922-18.277.378-27.218-.364-2.106-1.067-4.17-1.926-6.202-.45-1.067-.992-2.107-1.502-3.16-2.408-4.962-5.137-9.802-5.515-14.684-3.303-21.957 7.695-26.79 16.495-25.798 10.064 1.134 16.184 1.167 20.53-.199z" style="display:inline;vector-effect:non-scaling-stroke;fill:url(#C);stroke:#fff;stroke-width:.338553;stroke-dasharray:none;stroke-opacity:1;-inkscape-stroke:hairline" transform="translate(-11.333 -11.69)scale(.78151)"/>
      <path d="M79.89 87.238q.24-.587.527-1.153.287-.568.626-1.112c4.336-6.989 14.152-10.153 22.373-10.404 6.12-.188 12.438 4.049 12.63 4.178 4.046.597 8.46 1.415 13.357 2.338 6.475 1.222 11.315-.782 15.518-2.024a5 5 0 0 0-.207-.007h-.007l-.012-.001a5 5 0 0 1-.25-.023l-.075-.008-.009-.001q-.07-.01-.14-.023l-.112-.023q-.045-.008-.088-.018l-.082-.02-.104-.032-.01-.002-.067-.021-.015-.005-.005-.001h-.001l-.013-.004-.009-.003h-.002l-.005-.002c-3.999-.414-8.021-1.194-14.31-3.32-4.978-1.682-12.524-3.52-17.608-4.917-.449-.074-.873-.13-1.305-.193-12.58-1.334-21.052 2.234-25.498 6.82q-.524.541-.975 1.097c-.6.742-1.103 1.5-1.508 2.259a30.6 30.6 0 0 0-2.615 6.625z" style="display:inline;vector-effect:non-scaling-stroke;fill:url(#D);stroke:#fff;stroke-width:.338553;stroke-dasharray:none;stroke-opacity:1;-inkscape-stroke:hairline" transform="translate(-11.333 -11.69)scale(.78151)"/>
      <path d="M80.235 182.28v6.274c2.746-2.481 5.615-4.942 8.409-7.447.422-.378.802-.78 1.22-1.16 2.534-2.312 4.992-4.665 7.186-7.135.186-.21.385-.413.567-.625a50 50 0 0 0 3.134-3.99c.16-.228.287-.47.442-.702a36 36 0 0 0 2.083-3.527c.452-.879.89-1.763 1.253-2.678.039-.098.088-.193.126-.293a27 27 0 0 0 1.048-3.494c.105-.451.207-.903.288-1.363.045-.253.095-.504.132-.76.12-.827.214-1.664.253-2.523 1.07-7.746-1.298-16.124-4.912-24.949-1.507-3.677-4.446-8.26-6.44-12.008-5.046-9.492-10.326-21.186-.557-30.654 7.724-7.486 14.13-7.1 21.583-6.496-.001 0-6.42-4.372-12.634-4.181-8.22.251-18.037 3.415-22.373 10.404a15 15 0 0 0-1.153 2.265c-1.57 5.955-1.26 12.344.854 19.31l2.156 5.556c2.894 3.343 6.067 6.442 9.117 9.144 3.183 2.82 4.79 7.145 6.162 11.17 1.371 4.029 2.21 6.705 1.937 12.62-.755 17.535-11.177 28.938-17.011 34.433-1.186 1.117-2.183 1.99-2.87 2.62q.401-.365.931-.842z" style="display:inline;vector-effect:non-scaling-stroke;fill:url(#E);stroke:#fff;stroke-width:.338553;stroke-dasharray:none;stroke-opacity:1;-inkscape-stroke:hairline" transform="translate(-11.333 -11.69)scale(.78151)"/>
      <path d="M80.235 182.092c.687-.63 1.684-1.504 2.87-2.621 5.834-5.495 16.256-16.898 17.01-34.434.274-5.914-.565-8.59-1.936-12.619-1.371-4.025-2.98-8.35-6.162-11.17-3.05-2.702-6.223-5.8-9.117-9.144l.065.168C71.723 99.655 71.402 96.267 71.302 90.57c-.434-24.72 21.171-28.644 34.238-28.37-2.092-.841-8.801-5.457-20.348-.986-10.006 3.875-15.93 13.433-18.266 17.97-.532 1.033-.626 1.3-.792 1.685-.375 1.316-.581 2.571-.581 3.716 0 6.287.78 17.17 3.383 25.254 4.54 14.099 20.16 24.418 20.905 39.21.429 8.517-4.8 17.796-9.606 23.793z" style="display:inline;vector-effect:non-scaling-stroke;fill:url(#F);stroke:#fff;stroke-width:.338553;stroke-dasharray:none;stroke-opacity:1;-inkscape-stroke:hairline" transform="translate(-11.333 -11.69)scale(.78151)"/>
      <path d="M66.926 79.184c2.336-4.537 8.54-13.768 18.546-17.642 11.547-4.471 17.976-.183 20.068.657l.131.003s-5.562-4.207-8.677-5.13c-3.92-1.162-7.67 1.105-12.32-2.73-1.293-1.544-2.173-3.914-2.905-6.58l.035.128c-8.558 8.73-15.128 22.958-16.207 35.744 0 0 .797-3.417 1.33-4.45z" style="display:inline;vector-effect:non-scaling-stroke;fill:url(#G);stroke:#fff;stroke-width:.338553;stroke-dasharray:none;stroke-opacity:1;-inkscape-stroke:hairline" transform="translate(-11.333 -11.69)scale(.78151)"/>
      <path d="M101.555 38.269c.216.002.45.039.674.055.242.017.479.026.73.059.295.039.606.103.915.162.205.04.4.06.61.109.04.01.085.027.125.037.257.06.54.164.805.237.843.232 1.718.51 2.632.852.286.107.589.23.882.347 2.472.983 5.146 2.25 8.009 3.69l.035.015q.415.21.808.42l.457.215c.328-6.1-.319-11.182-2.06-15.514a24.3 24.3 0 0 0-2.11-4.091c-4.816 2.053-11.049 9.496-12.513 13.407z" style="display:inline;vector-effect:non-scaling-stroke;fill:url(#H);stroke:#fff;stroke-width:.338553;stroke-dasharray:none;stroke-opacity:1;-inkscape-stroke:hairline" transform="translate(-11.333 -11.69)scale(.78151)"/>
      <path d="M87.152 24.18c-6.428 10.436-5.574 18.314-5.383 23.582.732 2.666 1.612 5.036 2.905 6.58 4.65 3.835 8.4 1.568 12.32 2.73 3.115.923 8.676 5.13 8.677 5.13l-.131-.003c-4.9-.102-11 .386-16.69 2.339-3.792 1.302-7.402 3.255-10.35 6.12a22 22 0 0 0-2.08 2.323c-3.237 4.17-5.253 9.864-5.118 17.589.1 5.697.42 9.085 11.663 21.702l-2.221-5.725c-2.92-9.619-2.396-18.136 1.762-25.934 1.01-1.897 2.633-3.788 4.876-5.432a23.2 23.2 0 0 1 4.708-2.64c4.617-1.945 10.762-2.913 18.396-2.103-.264-.038-.541-.085-.8-.119q.79.072 1.603.171l.512.142-.01-.002c5.084 1.396 12.63 3.235 17.608 4.917 6.289 2.126 10.311 2.907 14.31 3.32l.005.002-.061-.025-.084-.034-.086-.035-.032-.017-.061-.032q-.038-.019-.075-.04l-.034-.017-.01-.007q-.073-.044-.142-.095l-.059-.039-.022-.016a2.2 2.2 0 0 1-.38-.38l-.06-.081a2.3 2.3 0 0 1-.244-.427q-.025-.053-.048-.11a3 3 0 0 1-.078-.222c-.008-.026-.018-.047-.026-.073l-.005-.022a4 4 0 0 1-.086-.364 5 5 0 0 1-.081-.919v-.069c0-.237.018-.455.044-.661l.003-.024c.08-.615.267-1.096.532-1.456l.008-.011a2.2 2.2 0 0 1 .374-.39l.018-.013a2 2 0 0 1 .46-.276 2.6 2.6 0 0 1 .78-.207l.044-.007.071-.007q.142-.012.286-.011l.108.002c-14.203-6.596-13.717-10.137-15.4-14.03h.001c-4.112-4.074-5.885-6.775-12.515-8.797a47 47 0 0 0-4.198-1.054c-.316-.065-.563-.137-.897-.2-2.656-.508-4.486-1.774-5.92-3.324q-.078-.087-.154-.176c-1.936-2.168-3.122-4.855-4.503-6.93l.017-.001c-4.69-6.023-14.11-14.205-14.047-14.092Zm.634 4.458a939 939 0 0 1 4.852 6.446c.182.243.37.533.564.859l.006.01q.273.462.565 1.013c.463.873 1.025 1.997 1.582 3.094a77 77 0 0 0 1.105 2.071c.173.315.345.627.527.942.56.967 1.156 1.934 1.822 2.847 1.9 2.605 4.437 4.573 7.042 5.797a4 4 0 0 1-.353.084 4 4 0 0 1-.37.05l-.03.001a4 4 0 0 1-.293.014c-.045 0-.092-.006-.137-.007a6 6 0 0 1-.81-.075l-.118-.016-.33-.059c-.545-.1-1.156-.23-1.848-.336a15.4 15.4 0 0 0-2.778-.171c-2.486.076-4.428-.095-5.963-.47a11 11 0 0 1-1.077-.32l-.076-.032c-.118-.043-.22-.093-.332-.14-.178-.072-.366-.14-.53-.22-.055-.028-.103-.06-.157-.087q-.103-.055-.201-.11a7 7 0 0 1-.702-.444l-.085-.058a6.4 6.4 0 0 1-.796-.713c-.052-.054-.11-.106-.16-.162-.08-.09-.147-.188-.222-.282-.072-.09-.147-.178-.214-.271-.022-.031-.049-.059-.07-.09-.093-.133-.173-.276-.258-.416-.047-.079-.1-.154-.145-.235a10 10 0 0 1-.395-.787c-.453-1.022-.773-2.163-1.095-3.378l-.026-.102a9 9 0 0 1-.16-.825l-.004-.05a13 13 0 0 1-.105-1.28 21 21 0 0 1 .007-1.946l.005-.044c.056-1.044.227-2.091.377-3.14.074-.51.1-1.042.184-1.53.004-.02.005-.016.008-.035a62 62 0 0 1 1.195-5.397zm26.873 30.741c.52-.016 1.02.007 1.51.047h.005l.056.005q.202.019.401.044c.44.053.87.122 1.286.22l.035.01c.098.023.193.053.29.079.402.107.794.23 1.175.378l.064.024c.082.032.163.069.244.103q.57.241 1.11.538l.018.01c.299.166.584.359.87.55h.001q.749.498 1.441 1.102.03.024.058.049h.001q.48.428.936.902c.138.143.28.278.415.427q.001.003.004.005c.046.05.096.095.142.147l.004.005q.562.636 1.09 1.34a15 15 0 0 0-.773-.159 27 27 0 0 0-2.092-.289c-1.726-.174-4.75-.556-6.021-1.047a9 9 0 0 1-.953-.438c-.986-.515-2.041-1.229-2.926-1.877-.295-.217-.271-.216-.52-.408-.884-.672-1.54-1.207-1.54-1.207a18 18 0 0 1 2.203-.421h.002a15 15 0 0 1 1.393-.136q.036 0 .07-.003z" style="display:inline;vector-effect:non-scaling-stroke;fill:url(#I);stroke:#fff;stroke-width:.338553;stroke-dasharray:none;stroke-opacity:1;-inkscape-stroke:hairline" transform="translate(-11.333 -11.69)scale(.78151)"/>
      <path d="M101.2 38.272h-.018c2.42 3.635 4.158 9.204 10.578 10.43 11.183 2.136 12.592 5.08 17.61 10.052l-.016-.035-.003-.006a32 32 0 0 1-.236-.526l-.008-.019c-.374-.856-.74-1.76-1.122-2.666-.081-.192-.154-.368-.239-.561-.137-.314-.29-.625-.439-.941-.148-.315-.293-.627-.458-.944-.175-.334-.382-.669-.58-1.004l-.002-.002v-.001c-.176-.296-.34-.591-.537-.887v-.001c-.232-.348-.513-.694-.781-1.042-.214-.277-.41-.554-.648-.83-.061-.071-.141-.14-.205-.21-.281-.302-.584-.6-.891-.9l-.003-.003c-.234-.227-.45-.456-.697-.682-.205-.181-.458-.358-.68-.538-.321-.246-.632-.494-.97-.739l-.009-.006c-.214-.156-.415-.313-.626-.47-.33-.222-.72-.44-1.081-.659-.687-.42-1.36-.843-2.17-1.25l-.034-.016c-2.864-1.44-5.534-2.706-8.008-3.69-.296-.117-.593-.238-.882-.346a31 31 0 0 0-2.632-.852c-.265-.073-.548-.177-.805-.237-.252-.06-.491-.098-.735-.146-.309-.06-.62-.123-.916-.162-.25-.033-.487-.042-.729-.06-.336-.024-.68-.059-.998-.051z" style="display:inline;vector-effect:non-scaling-stroke;fill:url(#J);stroke:#fff;stroke-width:.338553;stroke-dasharray:none;stroke-opacity:1;-inkscape-stroke:hairline" transform="translate(-11.333 -11.69)scale(.78151)"/>
      <path d="M87.786 28.638s-.671 2.417-1.194 5.397c-.087.498-.116 1.042-.192 1.565-.15 1.048-.321 2.098-.377 3.14a21 21 0 0 0-.012 1.99c.02.444.048.879.105 1.28.048.344.11.673.19.977.229.862.456 1.685.73 2.456q.168.474.364.919.181.408.396.79c.045.08.098.156.145.235.104.172.21.343.328.506.067.093.142.181.214.271a7 7 0 0 0 .533.599c.2.195.411.383.645.558l.085.058q.326.235.702.443.098.056.201.11c.214.112.448.211.687.309.111.046.214.096.332.139.69.251 1.474.453 2.383.594 1.31.203 2.87.285 4.733.228q.683-.02 1.272.012c.03.002.052.008.082.01.525.03.989.083 1.424.15.514.077.983.167 1.409.25l.438.086a14 14 0 0 0 .71.109 6 6 0 0 0 .549.04c.144.003.287.004.43-.007l.03-.001a3.7 3.7 0 0 0 .723-.134c-2.605-1.224-5.142-3.192-7.042-5.797-.667-.914-1.26-1.878-1.822-2.847a46 46 0 0 1-.527-.942 71 71 0 0 1-1.105-2.071c-.05-.098-.111-.205-.16-.301-.517-1.02-.987-1.974-1.422-2.793a25 25 0 0 0-.571-1.023 10 10 0 0 0-.564-.86 939 939 0 0 0-4.852-6.445z" style="display:inline;vector-effect:non-scaling-stroke;fill:url(#K);stroke:#fff;stroke-width:.338553;stroke-dasharray:none;stroke-opacity:1;-inkscape-stroke:hairline" transform="translate(-11.333 -11.69)scale(.78151)"/>
      <path d="M145.27 72.833c-.88-.15-1.891.007-2.511.7-.655.746-.76 1.8-.705 2.753.052.888.368 1.858 1.167 2.343.55.347 1.217.435 1.855.432.494-.338.998-.701 1.458-1.1.898-.79 1.587-1.794 2.103-2.868q.185-.37.351-.75c-1.24-.502-2.479-1.009-3.719-1.51z" style="display:inline;vector-effect:non-scaling-stroke;fill:#330232;stroke:#fff;stroke-width:.338553;stroke-dasharray:none;stroke-opacity:1;-inkscape-stroke:hairline" transform="translate(-11.333 -11.69)scale(.78151)"/>
      <path d="M115.572 59.41c-1.42-.107-2.84.143-4.225.44-.772.052.298.505.502.766 1.586 1.234 3.211 2.477 5.08 3.252 1.591.537 3.277.707 4.933.929 1.323.149 2.655.26 3.953.567-1.514-1.992-3.38-3.79-5.654-4.88a11.1 11.1 0 0 0-4.59-1.075z" style="display:inline;vector-effect:non-scaling-stroke;fill:#fcf067;stroke:#fff;stroke-width:.338553;stroke-dasharray:none;stroke-opacity:1;-inkscape-stroke:hairline" transform="translate(-11.333 -11.69)scale(.78151)"/>
    </g>
  </g>
</svg>
